<svg xmlns="http://www.w3.org/2000/svg" viewBox="0 0 512 512">
  <defs>
    <linearGradient id="bg" x1="0%" y1="0%" x2="100%" y2="100%">
      <stop offset="0%" style="stop-color:#1e293b"/>
      <stop offset="100%" style="stop-color:#0f172a"/>
    </linearGradient>
  </defs>
  <!-- Background -->
  <rect width="512" height="512" rx="108" ry="108" fill="url(#bg)"/>
  <!-- RSS waves (subtle, bottom-left) -->
  <g opacity="0.25" transform="translate(40, 312)">
    <circle cx="0" cy="160" r="22" fill="#3b82f6"/>
    <path d="M0 88 a72 72 0 0 1 72 72" fill="none" stroke="#3b82f6" stroke-width="22" stroke-linecap="round"/>
    <path d="M0 16 a144 144 0 0 1 144 144" fill="none" stroke="#3b82f6" stroke-width="22" stroke-linecap="round"/>
  </g>
  <!-- Letter R as path (bold, geometric) -->
  <g transform="translate(148, 96)" fill="#3b82f6">
    <!-- Stem -->
    <rect x="0" y="0" width="56" height="320" rx="4"/>
    <!-- Bowl -->
    <path d="M56 0 h72 a80 80 0 0 1 0 160 h-72 v-48 h72 a32 32 0 0 0 0-64 h-72 z"/>
    <!-- Leg (diagonal kick) -->
    <path d="M128 160 l88 160 h-64 l-88-160 z"/>
  </g>
</svg>
